<svg width="50" height="50" viewBox="0 0 50 50" fill="none" xmlns="http://www.w3.org/2000/svg">
<g clip-path="url(#clip0_101_287)">
<path d="M8.60802 43.9498C10.6543 44.689 12.8146 45.0626 14.9902 45.0533C17.366 45.0452 19.7236 44.6392 21.9652 43.8522C26.4712 42.2849 30.2126 39.3684 32.5001 35.64C34.8186 31.8613 35.3726 27.7024 34.0602 23.9291C34.0347 23.8573 34.0054 23.7868 33.9723 23.7182C34.3016 23.9513 34.6786 24.1084 35.076 24.1781C35.4735 24.2478 35.8814 24.2283 36.2704 24.1211L48.671 18.1039C48.9512 17.9693 49.2018 17.7802 49.4083 17.5478C49.6147 17.3154 49.7729 17.0442 49.8735 16.75C49.9741 16.4559 50.0152 16.1447 49.9944 15.8345C49.9736 15.5243 49.8913 15.2213 49.7523 14.9433L49.5692 14.5774C49.2993 14.0352 48.8296 13.6189 48.259 13.4159C47.6884 13.2129 47.0613 13.239 46.5096 13.4889L34.8318 18.8209C34.2499 18.9824 33.7371 19.3304 33.3723 19.8116C33.0075 20.2928 32.8108 20.8805 32.8125 21.4844C32.8124 21.7944 32.8652 22.1021 32.9688 22.3944L32.739 22.5476C29.6735 21.0144 22.2387 22.2504 15.2922 24.6667C14.8841 24.8086 14.4772 24.9549 14.0715 25.1056C13.3038 22.2615 15.2904 20.1915 15.3985 20.0819L14.2917 18.9791C13.5347 19.7978 12.9684 20.774 12.6336 21.8376C12.2383 23.0835 12.2274 24.4195 12.6023 25.6716C11.3523 26.1707 10.1511 26.6984 9.01447 27.2467C8.38409 24.9067 8.32814 22.4922 8.41398 20.7475C8.43082 20.3953 8.37712 20.0434 8.25603 19.7123C8.13494 19.3812 7.9489 19.0776 7.70884 18.8194C7.46878 18.5612 7.17955 18.3536 6.85813 18.2087C6.5367 18.0639 6.18958 17.9847 5.83713 17.9759C5.48469 17.9671 5.13404 18.0288 4.80578 18.1574C4.47752 18.286 4.17827 18.4789 3.92561 18.7248C3.67296 18.9707 3.47198 19.2646 3.3345 19.5892C3.19701 19.9139 3.12579 20.2627 3.12501 20.6153V26.1406C3.12478 26.2525 3.08019 26.3598 3.00102 26.4389C2.92185 26.5179 2.81455 26.5624 2.70265 26.5625C2.44102 26.5624 2.18195 26.6141 1.94035 26.7145C1.69875 26.8149 1.4794 26.9621 1.29492 27.1476C1.11043 27.3331 0.964456 27.5533 0.865392 27.7955C0.766328 28.0376 0.71613 28.297 0.717688 28.5586C0.752324 29.8262 0.978211 31.0813 1.38771 32.2815C0.192298 33.5612 -0.235241 34.7213 0.1172 35.7349C1.4298 39.5081 4.44523 42.4256 8.60802 43.9498V43.9498ZM21.452 42.3759C17.2858 43.825 12.9152 43.863 9.14523 42.4826C6.35968 41.4627 4.15499 39.7574 2.73898 37.5671C3.55587 37.727 4.38713 37.8018 5.21945 37.7903C5.69803 37.7903 6.2091 37.7717 6.75265 37.7345C9.4463 37.5497 12.6881 36.907 16.0902 35.897C16.1586 35.9079 18.0215 35.2977 18.8858 34.9971C20.8571 34.3148 22.7918 33.5309 24.682 32.6486L24.7219 32.63C26.7657 31.6682 28.5947 30.6452 30.0986 29.6141C31.4442 28.6916 32.4578 27.8185 33.1393 26.995C33.7271 33.234 28.961 39.7641 21.452 42.3759V42.3759ZM29.5855 26.6532C29.4208 28.0536 29.1466 28.3421 29.1351 28.3537L29.1502 28.3689C28.5034 28.8093 27.7941 29.2486 27.0311 29.682C27.5409 28.673 27.8776 27.5855 28.0274 26.4649C28.0531 26.2756 28.1465 26.1022 28.2903 25.9765C28.4341 25.8508 28.6185 25.7815 28.8095 25.7813C28.9198 25.7812 29.0288 25.8046 29.1294 25.8497C29.2301 25.8948 29.32 25.9608 29.3933 26.0431C29.4666 26.1255 29.5217 26.2225 29.5548 26.3277C29.588 26.4329 29.5985 26.5439 29.5857 26.6534L29.5855 26.6532ZM47.1535 14.9121C47.3373 14.8293 47.546 14.8209 47.7359 14.8886C47.9257 14.9564 48.0819 15.0951 48.1717 15.2756L48.3547 15.6415C48.4012 15.7345 48.4287 15.8359 48.4355 15.9396C48.4423 16.0434 48.4284 16.1475 48.3945 16.2458C48.3605 16.344 48.3073 16.4346 48.238 16.512C48.1686 16.5895 48.0845 16.6524 47.9905 16.6969L38.2799 21.4273C38.272 21.041 38.1821 20.6608 38.0162 20.3118C37.8504 19.9628 37.6123 19.6531 37.3177 19.403L47.1535 14.9121ZM35.5469 20.3125C35.7914 20.3122 36.0298 20.3885 36.2287 20.5306C36.4276 20.6727 36.5771 20.8735 36.656 21.1049C36.735 21.3362 36.7396 21.5865 36.6691 21.8206C36.5986 22.0547 36.4565 22.2608 36.2629 22.4101L35.8332 22.6195C35.6942 22.6562 35.5495 22.6656 35.4069 22.6471L35.59 22.5251C35.6764 22.4687 35.7508 22.3957 35.8089 22.3103C35.867 22.225 35.9076 22.129 35.9283 22.0278C35.9491 21.9267 35.9496 21.8224 35.9298 21.7211C35.91 21.6198 35.8703 21.5234 35.8131 21.4375C35.7558 21.3516 35.6821 21.2779 35.5961 21.2206C35.5102 21.1634 35.4138 21.1237 35.3124 21.104C35.2111 21.0843 35.1069 21.0848 35.0057 21.1056C34.9046 21.1264 34.8086 21.167 34.7233 21.2251L34.3768 21.4561C34.3843 21.1506 34.5109 20.8601 34.7294 20.6465C34.948 20.4329 35.2413 20.3131 35.5469 20.3125V20.3125ZM14.2436 28.6252L15.444 27.6249C15.1603 27.287 14.9055 26.9258 14.6822 26.5451C15.055 26.4075 15.4303 26.273 15.8053 26.1424C20.0777 24.6564 24.2428 23.7136 27.532 23.488C29.0626 23.3831 30.3527 23.4443 31.2625 23.6651C32.0028 23.8445 32.4721 24.1205 32.5839 24.4421C32.6957 24.7637 32.4989 25.2712 32.03 25.8714C31.7586 26.2102 31.4605 26.5268 31.1385 26.818C31.2044 26.2043 31.0261 25.5894 30.642 25.1063C30.2579 24.6233 29.6989 24.3109 29.0862 24.2369C28.4735 24.1629 27.8563 24.3332 27.3682 24.7109C26.8801 25.0886 26.5605 25.6434 26.4784 26.2551C26.0816 29.1761 24.3548 30.8783 23.8732 31.3022C22.0776 32.1335 20.2415 32.8741 18.3717 33.5213C17.5747 33.7985 16.7832 34.0564 15.9971 34.2949C12.9105 33.6992 10.728 31.834 9.50597 28.7434C10.6712 28.175 11.9122 27.6285 13.2055 27.1125C13.5012 27.6495 13.8489 28.1561 14.2436 28.6252V28.6252ZM2.40236 28.2498C2.4416 28.2101 2.48837 28.1786 2.53993 28.1572C2.59149 28.1357 2.64681 28.1248 2.70265 28.125C3.22889 28.1244 3.7334 27.9151 4.1055 27.543C4.47761 27.1709 4.68692 26.6664 4.68751 26.1402V20.6153C4.68769 20.3278 4.80196 20.0522 5.0052 19.849C5.20845 19.6457 5.48406 19.5314 5.7715 19.5313C5.91845 19.5313 6.06385 19.5613 6.19887 19.6193C6.33388 19.6773 6.45569 19.7622 6.5569 19.8687C6.6581 19.9753 6.73658 20.1013 6.78758 20.2391C6.83857 20.3769 6.86101 20.5237 6.85353 20.6704C6.74181 22.9402 6.85792 26.2795 8.04562 29.2976C8.7297 31.0359 9.69728 32.4663 10.9213 33.5488C11.6184 34.1636 12.4029 34.6714 13.2492 35.0555C11.4625 35.5178 9.6459 35.8563 7.81251 36.0685L7.15988 35.9482C5.41495 35.6573 4.08976 34.5549 3.22101 32.6716C2.64103 31.372 2.32146 29.9714 2.28038 28.5488C2.27984 28.4934 2.29034 28.4384 2.31129 28.3871C2.33223 28.3357 2.36319 28.2891 2.40236 28.2498V28.2498ZM1.59308 35.2216C1.48497 34.911 1.66388 34.4371 2.08058 33.8811C2.54178 34.7572 3.17201 35.5333 3.93488 36.1645C3.59139 36.1324 3.25049 36.077 2.91456 35.9985C2.17462 35.819 1.70548 35.5433 1.59337 35.222V35.2215L1.59308 35.2216Z" fill="#7A7AC7"/>
<path d="M7.03125 10.1562C6.5677 10.1562 6.11456 10.2937 5.72913 10.5512C5.34371 10.8088 5.0433 11.1748 4.86591 11.6031C4.68852 12.0314 4.6421 12.5026 4.73254 12.9572C4.82297 13.4119 5.04619 13.8295 5.37397 14.1573C5.70175 14.4851 6.11936 14.7083 6.57401 14.7987C7.02865 14.8892 7.4999 14.8427 7.92816 14.6653C8.35643 14.488 8.72247 14.1875 8.98001 13.8021C9.23754 13.4167 9.375 12.9636 9.375 12.5C9.3743 11.8786 9.12715 11.2829 8.68776 10.8435C8.24837 10.4041 7.65264 10.1569 7.03125 10.1562V10.1562ZM7.03125 13.2813C6.87673 13.2813 6.72569 13.2354 6.59721 13.1496C6.46874 13.0637 6.3686 12.9417 6.30947 12.799C6.25034 12.6562 6.23487 12.4991 6.26501 12.3476C6.29516 12.196 6.36956 12.0568 6.47882 11.9476C6.58808 11.8383 6.72729 11.7639 6.87884 11.7338C7.03038 11.7036 7.18747 11.7191 7.33022 11.7782C7.47298 11.8374 7.59499 11.9375 7.68084 12.066C7.76668 12.1944 7.8125 12.3455 7.8125 12.5C7.81227 12.7071 7.72988 12.9057 7.58342 13.0522C7.43696 13.1986 7.23838 13.281 7.03125 13.2813V13.2813Z" fill="#7A7AC7"/>
<path d="M14.8438 7.03125C14.8438 6.5677 14.7063 6.11456 14.4488 5.72913C14.1912 5.34371 13.8252 5.0433 13.3969 4.86591C12.9687 4.68852 12.4974 4.6421 12.0428 4.73254C11.5881 4.82297 11.1705 5.04619 10.8427 5.37397C10.5149 5.70175 10.2917 6.11936 10.2013 6.57401C10.1109 7.02865 10.1573 7.4999 10.3347 7.92816C10.5121 8.35643 10.8125 8.72247 11.1979 8.98001C11.5833 9.23754 12.0365 9.375 12.5 9.375C13.1214 9.3743 13.7171 9.12715 14.1565 8.68776C14.5959 8.24837 14.8431 7.65264 14.8438 7.03125ZM11.7188 7.03125C11.7188 6.87673 11.7646 6.72569 11.8504 6.59721C11.9363 6.46874 12.0583 6.3686 12.201 6.30947C12.3438 6.25034 12.5009 6.23487 12.6524 6.26501C12.804 6.29516 12.9432 6.36956 13.0524 6.47882C13.1617 6.58808 13.2361 6.72729 13.2662 6.87884C13.2964 7.03038 13.2809 7.18747 13.2218 7.33022C13.1627 7.47298 13.0625 7.59499 12.934 7.68084C12.8056 7.76668 12.6545 7.8125 12.5 7.8125C12.2929 7.81227 12.0943 7.72988 11.9478 7.58342C11.8014 7.43696 11.719 7.23838 11.7188 7.03125Z" fill="#7A7AC7"/>
<path d="M10.1562 15.625H11.7188V17.1875H10.1562V15.625Z" fill="#7A7AC7"/>
<path d="M9.375 22.6562H10.9375V24.2188H9.375V22.6562Z" fill="#7A7AC7"/>
<path d="M14.0625 29.6875H15.625V31.25H14.0625V29.6875Z" fill="#7A7AC7"/>
<path d="M1.5625 14.8438H3.125V16.4062H1.5625V14.8438Z" fill="#7A7AC7"/>
<path d="M8.16045 35.8062L9.02715 34.5062C7.11777 33.2333 7.0335 32.0605 7.03125 32.0112C7.03193 32.0244 7.03125 32.0312 7.03125 32.0312H5.46875C5.46875 32.234 5.54424 34.0625 8.16045 35.8062Z" fill="#7A7AC7"/>
<path d="M15.8681 12.079C16.1908 11.5908 16.556 11.132 16.9594 10.708L15.8538 9.60382C15.7488 9.7089 13.2812 12.207 13.2812 14.8438H14.8438C14.8438 14.0471 15.1979 13.091 15.8681 12.079V12.079Z" fill="#7A7AC7"/>
</g>
<defs>
<clipPath id="clip0_101_287">
<rect width="50" height="50" fill="white"/>
</clipPath>
</defs>
</svg>
